<svg xmlns="http://www.w3.org/2000/svg" width="23.846" height="23.851" viewBox="0 0 23.846 23.851">
  <g id="Grupo_1277" data-name="Grupo 1277" transform="translate(0.232 -0.136)">
    <path id="Caminho_1980" data-name="Caminho 1980" d="M23.789,7.01a8.714,8.714,0,0,0-.555-2.894A6.11,6.11,0,0,0,19.745.629,8.741,8.741,0,0,0,16.851.074C15.573.014,15.168,0,11.929,0S8.283.014,7.013.07a8.721,8.721,0,0,0-2.9.554A5.821,5.821,0,0,0,2,2,5.872,5.872,0,0,0,.629,4.114a8.736,8.736,0,0,0-.555,2.9C.013,8.284,0,8.69,0,11.928s.014,3.643.07,4.915a8.712,8.712,0,0,0,.555,2.894,6.109,6.109,0,0,0,3.492,3.489,8.743,8.743,0,0,0,2.894.555c1.272.056,1.678.07,4.916.07s3.644-.014,4.916-.07a8.717,8.717,0,0,0,2.894-.555,6.1,6.1,0,0,0,3.484-3.489,8.742,8.742,0,0,0,.555-2.894c.056-1.272.07-1.677.07-4.915s0-3.643-.061-4.915Zm-2.148,9.737a6.535,6.535,0,0,1-.407,2.213,3.956,3.956,0,0,1-2.265,2.265,6.562,6.562,0,0,1-2.213.406c-1.258.056-1.636.07-4.819.07s-3.565-.014-4.819-.07a6.535,6.535,0,0,1-2.213-.406,3.67,3.67,0,0,1-1.37-.89,3.709,3.709,0,0,1-.89-1.37,6.56,6.56,0,0,1-.406-2.213c-.056-1.258-.07-1.636-.07-4.818s.014-3.564.07-4.818A6.532,6.532,0,0,1,2.645,4.9a3.625,3.625,0,0,1,.9-1.37,3.7,3.7,0,0,1,1.367-.893,6.568,6.568,0,0,1,2.213-.406c1.258-.056,1.636-.07,4.819-.07s3.565.014,4.819.07a6.54,6.54,0,0,1,2.213.406,3.669,3.669,0,0,1,1.37.89,3.708,3.708,0,0,1,.89,1.37,6.564,6.564,0,0,1,.407,2.213c.056,1.258.07,1.636.07,4.818s-.014,3.556-.07,4.813Z" transform="translate(-0.232 0.136)" fill="#fafafa"/>
    <path id="Caminho_1981" data-name="Caminho 1981" d="M13.184,7.053a6.129,6.129,0,1,0,4.332,1.795A6.129,6.129,0,0,0,13.184,7.053Zm0,10.1A3.975,3.975,0,1,1,16,15.99,3.976,3.976,0,0,1,13.184,17.154Z" transform="translate(-1.485 -1.117)" fill="#fafafa"/>
    <path id="Caminho_1982" data-name="Caminho 1982" d="M23.373,6.45a1.431,1.431,0,1,1-.419-1.012A1.43,1.43,0,0,1,23.373,6.45Z" transform="translate(-3.875 -0.756)" fill="#fafafa"/>
  </g>
</svg>
