<svg xmlns="http://www.w3.org/2000/svg" width="21.805" height="21.783" viewBox="0 0 21.805 21.783">
  <g id="Grupo_1274" data-name="Grupo 1274" transform="translate(-11.162 -9.478)">
    <path id="Caminho_1984" data-name="Caminho 1984" d="M26.506,25.959V17.972c0-3.908-.841-6.918-5.411-6.918A4.753,4.753,0,0,0,16.823,13.4h-.064V11.418H12.434V25.959h4.512v-7.2c0-1.9.366-3.728,2.707-3.728,2.314,0,2.347,2.164,2.347,3.851v7.079Z" transform="translate(6.461 5.299)" fill="#fafafa"/>
    <path id="Caminho_1985" data-name="Caminho 1985" d="M7.473,11.3h4.51V25.842H7.473Z" transform="translate(4.082 5.419)" fill="#fafafa"/>
    <path id="Caminho_1986" data-name="Caminho 1986" d="M9.849,6.406a2.616,2.616,0,1,0,1.85.766A2.629,2.629,0,0,0,9.849,6.406Z" transform="translate(3.955 3.072)" fill="#fafafa"/>
  </g>
</svg>
