<svg xmlns="http://www.w3.org/2000/svg" width="22.651" height="17.544" viewBox="0 0 22.651 17.544">
  <path id="playstation" d="M5.448,22.29c-.849.566-.566,1.641,1.245,2.151a12.181,12.181,0,0,0,5.886.453,2.451,2.451,0,0,0,.283-.057V22.913l-1.924.623a4.189,4.189,0,0,1-2.207.113c-.566-.17-.453-.509.226-.792l3.9-1.358V19.4L7.429,21.271A7.319,7.319,0,0,0,5.448,22.29ZM18.578,13.8v5.49c2.32,1.132,4.131,0,4.131-2.943,0-3-1.075-4.358-4.188-5.433A39.161,39.161,0,0,0,13.485,9.5V25.855l3.962,1.188V13.292c0-.623,0-1.075.453-.905.623.17.679.792.679,1.415Zm7.357,7.187a12.044,12.044,0,0,0-5.093-.623,9.283,9.283,0,0,0-2.547.566l-.17.057V23.2L21.8,21.837a4.189,4.189,0,0,1,2.207-.113c.566.17.453.509-.226.792L18.125,24.61v2.151l7.81-2.886a4.362,4.362,0,0,0,1.528-.962C27.859,22.347,27.69,21.554,25.935,20.988Z" transform="translate(-4.99 -9.5)" fill="#fff"/>
</svg>
