<svg xmlns="http://www.w3.org/2000/svg" width="17.542" height="17.544" viewBox="0 0 17.542 17.544">
  <path id="xbox" d="M2.617,2.522l-.008.007h0a8.769,8.769,0,0,0-.816,11.554.039.039,0,0,0,.047.015.035.035,0,0,0,.01-.045C1.181,11.986,4.6,6.975,6.365,4.874a.046.046,0,0,0,.013-.026.04.04,0,0,0-.017-.029C3.391,1.863,2.6,2.539,2.609,2.53m12.317-.007.008.007h0a8.77,8.77,0,0,1,.815,11.554.039.039,0,0,1-.047.015.037.037,0,0,1-.01-.045c.669-2.068-2.746-7.083-4.512-9.185a.041.041,0,0,1-.013-.025.038.038,0,0,1,.017-.03c2.971-2.957,3.759-2.276,3.749-2.285M8.771,0A8.647,8.647,0,0,1,13.34,1.284a.033.033,0,0,1,.015.043.034.034,0,0,1-.042.015c-1.7-.367-4.279,1.1-4.523,1.247a.028.028,0,0,1-.038,0C8.1,2.217,5.719.967,4.217,1.351a.033.033,0,0,1-.028-.059A8.638,8.638,0,0,1,8.771,0m0,7.035a.05.05,0,0,1,.028.014c2.625,2,7.117,6.93,5.746,8.325l0,0v0h0A8.766,8.766,0,0,1,3,15.374l0,0,0,0c-1.369-1.4,3.123-6.329,5.745-8.325a.058.058,0,0,1,.03-.014" fill="#fff"/>
</svg>
